# xmcd
#
# Track frame offsets: 
#        183
#        12970
#        25443
#        39668
#        56845
#        72185
#        86543
#        97573
#        111195
#        123578
#        141638
#        157460
#
# Disc length: 2325 seconds
#
# Revision: 9
# Processed by: cddbd v1.5.2PL0 Copyright (c) Steve Scherf et al.
# Submitted via: ExactAudioCopy v1.1
#
DISCID=aa09130c
DTITLE=Zillertaler Schürzenjäger - Zillertaler Schürzenjäger 92
DYEAR=1992
DGENRE=Folk/Rock
TTITLE0=Ich habe mein Wort einer anderen gegeben
TTITLE1=Jodelautomat
TTITLE2=Schürzenjägerzeit
TTITLE3=Zum Beten geh i in die Berge
TTITLE4=Was dann?
TTITLE5=Dahoam is dahoam
TTITLE6=Zillertaler Hochzeitsmarsch
TTITLE7=Sierra Madre
TTITLE8=Sommer in den Bergen
TTITLE9=Mein Tirol, ich vermisse Dich
TTITLE10=Rock 'n Roll im Zillertal
TTITLE11=Alles braucht im Leben seine Zeit
EXTD=
EXTT0=
EXTT1=
EXTT2=
EXTT3=
EXTT4=
EXTT5=
EXTT6=
EXTT7=
EXTT8=
EXTT9=
EXTT10=
EXTT11=
PLAYORDER=
